<?xml version="1.0" encoding="utf-8"?>
<!-- Generator: Adobe Illustrator 22.0.1, SVG Export Plug-In . SVG Version: 6.00 Build 0)  -->
<svg version="1.1" id="Layer_1" xmlns="http://www.w3.org/2000/svg" xmlns:xlink="http://www.w3.org/1999/xlink" x="0px" y="0px"
	 viewBox="0 0 210.5 389.8" style="enable-background:new 0 0 210.5 389.8;" xml:space="preserve">
<style type="text/css">
	.st0{fill:none;stroke:#231F20;stroke-width:5.67;stroke-miterlimit:10;}
	.st1{fill:#231F20;}
</style>
<title>1</title>
<rect x="68.1" y="55.7" class="st0" width="43.4" height="19.3"/>
<rect x="136.8" y="98.9" class="st0" width="19.3" height="43.4"/>
<path class="st0" d="M43.5,265.7c0,2.2,0.5,4.3,1.4,6.2l32.4,67.4c3.5,6.9,11.9,9.7,18.8,6.2c2.7-1.3,4.9-3.5,6.2-6.2l33-67.5
	c1-1.9,1.5-4.1,1.5-6.3V75H43.5V265.7z"/>
<path class="st0" d="M98.7,243c-15,0-27.2-10.8-27.2-24s12.2-24,27.2-24c2.8,0,5.7,0.4,8.4,1.2c2.5,0.7,3.9,3.3,3.2,5.8
	c-0.5,1.7-1.9,3-3.6,3.3c-2.6,0.5-5.3,0.6-7.9,0.5c-15-0.9-27.2-10.8-27.2-24s12.2-24,27.2-24c2.8,0,5.6,0.4,8.3,1.1
	c2.5,0.7,3.9,3.3,3.2,5.8c-0.4,1.5-1.6,2.7-3.2,3.2c-2.7,0.8-5.5,1.2-8.3,1.2c-15,0-27.2-10.8-27.2-24s12.2-24,27.2-24"/>
<line class="st0" x1="89.8" y1="17.6" x2="89.8" y2="44"/>
<polygon class="st1" points="84,21.5 89.8,0 95.6,21.5 "/>
<line class="st0" x1="184.1" y1="120.6" x2="210.5" y2="120.6"/>
<polygon class="st1" points="188,126.4 166.5,120.6 188,114.9 "/>
<path class="st0" d="M136.8,239.7c-0.4,25.8-21.6,46.4-47.3,46c-25.2-0.4-45.6-20.7-46-46"/>
<line class="st0" x1="136.8" y1="304.4" x2="150.8" y2="276.7"/>
<line class="st0" x1="145.1" y1="288.1" x2="169.5" y2="386.5"/>
<line class="st0" x1="156.2" y1="387" x2="180.3" y2="387"/>
<line class="st0" x1="43.5" y1="304.4" x2="29.5" y2="276.7"/>
<line class="st0" x1="35.3" y1="288.1" x2="10.8" y2="386.5"/>
<line class="st0" x1="24.2" y1="387" x2="0" y2="387"/>
</svg>
