<?xml version="1.0" encoding="utf-8"?>
<!-- Generator: Adobe Illustrator 22.0.1, SVG Export Plug-In . SVG Version: 6.00 Build 0)  -->
<svg version="1.1" id="Layer_1" xmlns="http://www.w3.org/2000/svg" xmlns:xlink="http://www.w3.org/1999/xlink" x="0px" y="0px"
	 viewBox="0 0 311.8 396.9" style="enable-background:new 0 0 311.8 396.9;" xml:space="preserve">
<style type="text/css">
	.st0{fill:#231F20;}
</style>
<path class="st0" d="M250.3,307.2H64.2V140.1l82.8-71.5h103.4V307.2z M69.8,301.5h174.8V74.2h-95.6l-79.2,68.5V301.5z"/>
<rect x="269" y="100.6" class="st0" width="15" height="43.5"/>
<rect x="84" y="304.4" class="st0" width="52.5" height="12"/>
<rect x="180.5" y="304.4" class="st0" width="52.5" height="12"/>
<rect x="12.1" y="224.2" transform="matrix(6.123234e-17 -1 1 6.123234e-17 -175.7371 278.7371)" class="st0" width="78.8" height="6"/>
<rect x="53.5" y="92.2" transform="matrix(0.7451 -0.6669 0.6669 0.7451 -39.823 86.2435)" class="st0" width="78.8" height="6"/>
<g>
	<rect x="247.5" y="108.5" class="st0" width="21.5" height="5.7"/>
	<rect x="247.5" y="130.5" class="st0" width="29" height="5.7"/>
</g>
</svg>
